<?xml version="1.0" encoding="utf-8"?>
<!-- Generator: Adobe Illustrator 24.1.2, SVG Export Plug-In . SVG Version: 6.00 Build 0)  -->
<svg version="1.1" id="Ebene_1" xmlns="http://www.w3.org/2000/svg" xmlns:xlink="http://www.w3.org/1999/xlink" x="0px" y="0px"
	 viewBox="0 0 756.9 282.8" style="enable-background:new 0 0 756.9 282.8;" xml:space="preserve">
<style type="text/css">
	.st0{fill-rule:evenodd;clip-rule:evenodd;fill:#F1BA39;}
	.st1{fill-rule:evenodd;clip-rule:evenodd;fill:#FFFFFF;}
</style>
<g>
	<path class="st0" d="M703.7,159.4V73h-40.3V0h93.4v159.4H703.7L703.7,159.4z M99.3,268.6h23.2v13.2H84.7v-56.1h14.6V268.6
		L99.3,268.6z M216.6,238.9h-24.3v7.7h17.3v12.2h-17.3v9.8h25.3v13.2h-39.9v-56.1h38.9V238.9L216.6,238.9z M288.9,281.8h-14.6v-56.1
		h14.6V281.8L288.9,281.8z M369.7,225.7c3.1,0,5.9,0.5,8.6,1.4c2.7,0.9,5,2.2,6.9,3.8c1.9,1.6,3.4,3.7,4.5,6.1
		c1.1,2.4,1.7,5.1,1.7,8c0,2.9-0.6,5.5-1.7,7.9c-1.1,2.4-2.6,4.4-4.5,6.1c-1.9,1.7-4.2,3-6.9,4c-2.7,0.9-5.5,1.4-8.6,1.4h-7.4v17.4
		h-14.6v-56.1H369.7L369.7,225.7z M362.3,238.4v13.2h7.5c2,0,3.7-0.6,4.9-1.8c1.2-1.2,1.8-2.8,1.8-4.8c0-2-0.6-3.6-1.8-4.8
		c-1.2-1.2-2.8-1.8-4.9-1.8H362.3L362.3,238.4z M487.8,229.5l-24.6,39.1h24.7v13.2H441v-3.8l24.6-39.1h-20.9v-13.2h43.2V229.5
		L487.8,229.5z M557.6,281.8H543v-56.1h14.6V281.8L557.6,281.8z M644,224.7c5.2,0,9.9,1.1,13.9,3.2c4.1,2.2,7.5,5.2,10.2,9.3
		l-10.2,8.7c-1.8-2.4-3.8-4.3-6-5.7c-2.2-1.4-5-2-8.2-2c-2.4,0-4.5,0.4-6.4,1.1c-1.9,0.8-3.5,1.8-4.8,3.2c-1.3,1.4-2.3,3-3,4.9
		c-0.7,1.9-1.1,4-1.1,6.4c0,2.4,0.4,4.6,1.1,6.5c0.7,2,1.8,3.7,3.2,5.1c1.4,1.4,3.1,2.5,5.1,3.3c2,0.8,4.3,1.2,6.8,1.2
		c2.7,0,5.1-0.4,7.2-1.3c2.1-0.9,3.8-2.1,5.1-3.7v-2.6h-13.1v-12.6h27.7v17.7c-1.2,2.2-2.8,4.3-4.7,6.2c-1.9,1.9-4,3.5-6.3,4.9
		c-2.3,1.4-4.9,2.5-7.7,3.3c-2.8,0.8-5.8,1.2-8.9,1.2c-4.3,0-8.3-0.7-12-2.2c-3.7-1.5-6.9-3.5-9.7-6.1s-4.9-5.7-6.5-9.2
		c-1.6-3.5-2.3-7.4-2.3-11.5c0-4.1,0.8-8,2.3-11.5c1.6-3.5,3.7-6.6,6.5-9.2c2.7-2.6,6-4.6,9.7-6.1
		C635.7,225.4,639.7,224.7,644,224.7L644,224.7z"/>
	<path class="st1" d="M0,186.3h756.3v13.1H0V186.3L0,186.3z M82.5,1.4c15.1,0,28.5,3.4,40.2,10.3c11.7,6.8,21,16.2,27.9,28l-24,16.8
		c-5.1-8.2-11.3-14.6-18.5-19.1c-7.2-4.5-15.7-6.8-25.5-6.8c-7.2,0-13.7,1.2-19.7,3.7c-6,2.5-11.2,6-15.6,10.5
		c-4.4,4.5-7.9,9.9-10.4,16.1C34.3,67.1,33,74,33,81.4c0,7.5,1.2,14.3,3.7,20.4c2.5,6.1,5.9,11.4,10.4,15.9
		c4.4,4.4,9.6,7.9,15.6,10.4c6,2.5,12.6,3.7,19.7,3.7c9.8,0,18.3-2.3,25.5-6.8c7.2-4.5,13.4-10.9,18.5-19.1l24,16.8
		c-6.8,11.8-16.1,21.2-27.9,28C111,157.6,97.6,161,82.5,161c-11.5,0-22.2-2-32.2-6.1c-10-4-18.6-9.6-25.9-16.8
		C17.1,131,11.3,122.5,7,112.8c-4.3-9.7-6.4-20.3-6.4-31.6c0-11.4,2.1-21.9,6.4-31.6c4.3-9.7,10.1-18.2,17.4-25.3
		c7.3-7.2,15.9-12.8,25.9-16.8C60.3,3.4,71,1.4,82.5,1.4L82.5,1.4z M208.9,129.7h67.4v28.5h-98.9V4.2h31.5V129.7L208.9,129.7z
		 M426.6,94.5c0,10.3-1.7,19.5-5,27.8c-3.3,8.2-7.9,15.2-13.8,21c-5.8,5.8-12.7,10.1-20.6,13.2c-7.9,3-16.6,4.5-25.9,4.5
		c-9.3,0-18-1.5-26-4.5c-8-3-14.9-7.4-20.8-13.2c-5.8-5.8-10.4-12.8-13.6-21c-3.3-8.2-4.9-17.5-4.9-27.8V4.2h31.5v92.6
		c0,5.8,0.9,10.8,2.6,15.2c1.7,4.4,4.1,8,7.1,11c3,3,6.6,5.2,10.7,6.6c4.1,1.5,8.6,2.2,13.4,2.2c4.8,0,9.3-0.7,13.4-2.2
		c4.1-1.5,7.7-3.7,10.7-6.6c3-3,5.4-6.6,7.1-11s2.6-9.4,2.6-15.2V4.2h31.5V94.5L426.6,94.5z M515.1,4.2c7.2,0,13.7,1,19.7,3.1
		c6,2.1,11.1,5,15.4,8.7c4.3,3.7,7.6,8.2,10,13.5c2.4,5.3,3.6,11.1,3.6,17.5c0,5.8-1,11-3,15.6c-2,4.7-4.8,8.7-8.4,12.1
		c8.6,3.1,15.3,7.9,20.2,14.3c4.9,6.5,7.3,14.3,7.3,23.7c0,6.7-1.2,12.8-3.7,18.3c-2.5,5.5-6,10.3-10.4,14.2s-9.8,7.1-16.1,9.3
		c-6.3,2.3-13.2,3.4-20.6,3.4h-68.4V4.2H515.1L515.1,4.2z M491.3,92.4v38.7h35.5c7,0,12.4-1.7,16.2-5.1c3.8-3.4,5.7-8.2,5.7-14.2
		c0-5.9-1.9-10.6-5.7-14.1c-3.8-3.5-9.2-5.2-16.2-5.2H491.3L491.3,92.4z M491.3,31.3v35.2h21.5c6.5,0,11.5-1.6,14.9-4.9
		c3.4-3.3,5.1-7.5,5.1-12.8c0-5.4-1.7-9.7-5.1-12.8c-3.4-3.1-8.4-4.7-14.9-4.7H491.3L491.3,31.3z M650.3,0v86.3h40.3v73.1h-93.4V0
		H650.3L650.3,0z"/>
</g>
</svg>
